<?xml version="1.0" standalone="no"?>
<!DOCTYPE svg PUBLIC "-//W3C//DTD SVG 20010904//EN"
 "http://www.w3.org/TR/2001/REC-SVG-20010904/DTD/svg10.dtd">
<svg version="1.0" xmlns="http://www.w3.org/2000/svg"
 width="696.000000pt" height="784.000000pt" viewBox="0 0 696.000000 784.000000"
 preserveAspectRatio="xMidYMid meet">

<g transform="translate(0.000000,784.000000) scale(0.100000,-0.100000)"
fill="#000000" stroke="none">
<path d="M4500 7157 c0 -2 -42 -94 -94 -205 -52 -111 -91 -204 -87 -206 4 -3
144 -68 311 -146 167 -77 305 -142 307 -144 3 -3 -205 -454 -1124 -2436 -57
-124 -159 -343 -226 -487 -66 -145 -125 -263 -130 -263 -4 0 -153 67 -330 149
-177 82 -339 152 -359 156 -64 12 -133 -11 -188 -64 -44 -42 -64 -79 -228
-436 -210 -455 -232 -507 -271 -657 -51 -192 -64 -316 -58 -538 6 -198 20
-299 66 -462 66 -233 191 -470 357 -677 l68 -84 126 6 c157 8 256 22 385 52
424 100 804 349 1066 698 121 161 134 187 439 847 60 129 112 252 115 272 4
21 2 60 -5 90 -10 42 -24 63 -65 103 -46 44 -87 66 -368 195 -174 80 -317 149
-317 154 0 7 346 755 1197 2591 74 160 166 358 205 442 l70 152 32 -13 c17 -8
159 -73 315 -145 156 -73 285 -131 286 -129 2 3 79 166 161 345 l33 71 -177
83 c-215 100 -692 321 -937 434 -99 46 -263 122 -365 169 -162 76 -210 94
-210 83z"/>
<path d="M1340 3035 c-82 -80 -108 -124 -93 -157 6 -14 70 -60 157 -113 80
-49 192 -119 249 -154 185 -115 224 -129 241 -85 9 23 -7 47 -108 169 -50 61
-133 163 -184 227 -98 123 -153 178 -178 178 -9 0 -46 -29 -84 -65z"/>
<path d="M813 2202 c-26 -16 -44 -85 -49 -190 -7 -118 1 -152 40 -177 23 -16
43 -14 318 19 161 20 334 41 385 47 83 10 94 14 122 43 56 57 41 68 -174 120
-77 19 -238 59 -357 90 -215 55 -261 63 -285 48z"/>
<path d="M1600 1334 c-85 -42 -225 -105 -310 -141 -172 -71 -200 -87 -200
-108 0 -25 128 -268 151 -287 12 -10 29 -18 39 -18 17 0 468 446 529 524 37
46 38 61 9 80 -49 30 -60 28 -218 -50z"/>
</g>
</svg>
